<svg width="1200" height="760" viewBox="0 0 1200 760" fill="none" xmlns="http://www.w3.org/2000/svg">
  <defs>
    <linearGradient id="bg" x1="114" y1="94" x2="1064" y2="680" gradientUnits="userSpaceOnUse">
      <stop stop-color="#13161A"/>
      <stop offset="1" stop-color="#0A0F14"/>
    </linearGradient>
    <pattern id="grid" width="34" height="34" patternUnits="userSpaceOnUse">
      <path d="M34 0H0V34" stroke="white" stroke-opacity=".07"/>
    </pattern>
  </defs>
  <rect width="1200" height="760" rx="36" fill="url(#bg)"/>
  <rect width="1200" height="760" rx="36" fill="url(#grid)"/>
  <rect x="402" y="166" width="364" height="424" rx="44" fill="#0E151B" stroke="#B6D6F0" stroke-opacity=".5" stroke-width="2"/>
  <rect x="430" y="194" width="308" height="368" rx="34" fill="#11181F" stroke="white" stroke-opacity=".14"/>
  <path d="M430 238H738" stroke="#AFCFE8" stroke-opacity=".2"/>
  <path d="M430 518H738" stroke="#AFCFE8" stroke-opacity=".2"/>
  <circle cx="584" cy="300" r="70" fill="#0C1218" stroke="#93B7D0" stroke-opacity=".42"/>
  <circle cx="584" cy="300" r="34" stroke="#93B7D0" stroke-opacity=".42"/>
  <circle cx="584" cy="456" r="92" fill="#0C1218" stroke="#93B7D0" stroke-opacity=".42"/>
  <circle cx="584" cy="456" r="42" stroke="#93B7D0" stroke-opacity=".42"/>
  <path d="M326 216L402 246" stroke="#AFCFE8" stroke-width="2"/>
  <path d="M326 546L402 516" stroke="#AFCFE8" stroke-width="2"/>
  <path d="M766 246H910" stroke="#AFCFE8" stroke-width="2"/>
  <path d="M766 516H984" stroke="#AFCFE8" stroke-width="2"/>
  <circle cx="326" cy="216" r="5" fill="#AFCFE8"/>
  <circle cx="326" cy="546" r="5" fill="#AFCFE8"/>
  <circle cx="910" cy="246" r="5" fill="#AFCFE8"/>
  <circle cx="984" cy="516" r="5" fill="#AFCFE8"/>
  <text x="154" y="210" fill="#DDE9F3" font-size="20" font-family="Segoe UI, Arial, sans-serif">Fabric alignment</text>
  <text x="126" y="554" fill="#DDE9F3" font-size="20" font-family="Segoe UI, Arial, sans-serif">Fit tolerance</text>
  <text x="924" y="240" fill="#DDE9F3" font-size="20" font-family="Segoe UI, Arial, sans-serif">Top mesh seating</text>
  <text x="998" y="522" fill="#DDE9F3" font-size="20" font-family="Segoe UI, Arial, sans-serif">Assembly fixture</text>
  <text x="108" y="92" fill="#E4EEF7" font-size="24" font-family="Segoe UI, Arial, sans-serif" letter-spacing="3">BLUETOOTH SPEAKER / MASS PRODUCTION REVIEW</text>
</svg>
