<svg width="1200" height="760" viewBox="0 0 1200 760" fill="none" xmlns="http://www.w3.org/2000/svg">
  <defs>
    <linearGradient id="bg" x1="108" y1="86" x2="1042" y2="682" gradientUnits="userSpaceOnUse">
      <stop stop-color="#0F1B28"/>
      <stop offset="1" stop-color="#091119"/>
    </linearGradient>
    <pattern id="grid" width="34" height="34" patternUnits="userSpaceOnUse">
      <path d="M34 0H0V34" stroke="white" stroke-opacity=".07"/>
    </pattern>
  </defs>
  <rect width="1200" height="760" rx="36" fill="url(#bg)"/>
  <rect width="1200" height="760" rx="36" fill="url(#grid)"/>
  <path d="M186 560C186 494 240 440 306 440H896C962 440 1016 494 1016 560V582C1016 627 980 664 935 664H267C222 664 186 627 186 582V560Z" fill="#0F1C2A" stroke="#9BCCFF" stroke-opacity=".54" stroke-width="2"/>
  <path d="M212 416C212 324 286 250 378 250H824C916 250 990 324 990 416V440H212V416Z" fill="#132435" stroke="white" stroke-opacity=".14"/>
  <path d="M352 320C352 296 372 276 396 276H808C832 276 852 296 852 320V370H352V320Z" fill="#0B121A" stroke="#8EC3FF" stroke-opacity=".4"/>
  <path d="M392 518C392 474 428 438 472 438H732C776 438 812 474 812 518V560C812 596 783 626 747 626H457C421 626 392 596 392 560V518Z" fill="#0A1118" stroke="white" stroke-opacity=".12"/>
  <path d="M602 252V164" stroke="#A9D1FF" stroke-width="2"/>
  <path d="M602 164H756" stroke="#A9D1FF" stroke-width="2"/>
  <circle cx="756" cy="164" r="5" fill="#A9D1FF"/>
  <text x="770" y="170" fill="#D7EBFF" font-size="20" font-family="Segoe UI, Arial, sans-serif">Top lid hinge path</text>
  <path d="M448 488C448 452 476 424 512 424H542C578 424 606 452 606 488V520C606 548 584 570 556 570H498C470 570 448 548 448 520V488Z" fill="#122334" stroke="#A9D1FF" stroke-opacity=".45"/>
  <path d="M594 488C594 452 622 424 658 424H688C724 424 752 452 752 488V520C752 548 730 570 702 570H644C616 570 594 548 594 520V488Z" fill="#122334" stroke="#A9D1FF" stroke-opacity=".45"/>
  <path d="M498 528C516 514 530 496 540 476" stroke="#DAEEFF" stroke-opacity=".72" stroke-width="3" stroke-linecap="round"/>
  <path d="M702 528C684 514 670 496 660 476" stroke="#DAEEFF" stroke-opacity=".72" stroke-width="3" stroke-linecap="round"/>
  <path d="M812 514H942" stroke="#A9D1FF" stroke-width="2"/>
  <path d="M812 562H900" stroke="#A9D1FF" stroke-width="2"/>
  <circle cx="942" cy="514" r="5" fill="#A9D1FF"/>
  <circle cx="900" cy="562" r="5" fill="#A9D1FF"/>
  <text x="956" y="520" fill="#D7EBFF" font-size="20" font-family="Segoe UI, Arial, sans-serif">Battery zone</text>
  <text x="914" y="568" fill="#D7EBFF" font-size="20" font-family="Segoe UI, Arial, sans-serif">Magnet seat</text>
  <text x="112" y="92" fill="#D9ECFF" font-size="24" font-family="Segoe UI, Arial, sans-serif" letter-spacing="3">TWS CHARGING CASE / STACK VIEW</text>
</svg>
